<svg width="36" height="36" viewBox="0 0 36 36" fill="none" xmlns="http://www.w3.org/2000/svg">
<circle cx="18" cy="18" r="18" fill="#F9FAFB"/>
<path d="M18.1234 27.2469C16.9507 27.2469 16 26.2962 16 25.1234C16 23.9507 16.9507 23 18.1234 23C19.2962 23 20.2469 23.9507 20.2469 25.1234C20.2469 26.2962 19.2962 27.2469 18.1234 27.2469Z" fill="#19191A"/>
<path d="M18.1234 20.2469C16.9507 20.2469 16 19.2962 16 18.1234C16 16.9507 16.9507 16 18.1234 16C19.2962 16 20.2469 16.9507 20.2469 18.1234C20.2469 19.2962 19.2962 20.2469 18.1234 20.2469Z" fill="#19191A"/>
<path d="M18.1234 13.2469C16.9507 13.2469 16 12.2962 16 11.1234C16 9.95069 16.9507 9 18.1234 9C19.2962 9 20.2469 9.95069 20.2469 11.1234C20.2469 12.2962 19.2962 13.2469 18.1234 13.2469Z" fill="#19191A"/>
</svg>
