<svg width="36" height="36" viewBox="0 0 36 36" fill="none" xmlns="http://www.w3.org/2000/svg">
<circle cx="18" cy="18" r="18" fill="#F9FAFB"/>
<path d="M17.9998 12.8763C16.826 12.8763 15.8745 11.9247 15.8745 10.7509C15.8745 9.57715 16.826 8.62561 17.9998 8.62561C19.1736 8.62561 20.1251 9.57715 20.1251 10.7509C20.1251 11.9247 19.1736 12.8763 17.9998 12.8763Z" fill="#19191A"/>
<path d="M17.9998 20.1249C16.8268 20.1249 15.8759 19.1739 15.8759 18.0009C15.8759 16.8279 16.8268 15.877 17.9998 15.877C19.1728 15.877 20.1237 16.8279 20.1237 18.0009C20.1237 19.1739 19.1728 20.1249 17.9998 20.1249Z" fill="#19191A"/>
<path d="M17.9998 27.3743C16.8271 27.3743 15.8764 26.4236 15.8764 25.2509C15.8764 24.0782 16.8271 23.1275 17.9998 23.1275C19.1725 23.1275 20.1232 24.0782 20.1232 25.2509C20.1232 26.4236 19.1725 27.3743 17.9998 27.3743Z" fill="#19191A"/>
</svg>
