<svg width="6" height="19" viewBox="0 0 6 19" fill="none" xmlns="http://www.w3.org/2000/svg">
<g id="Icon">
<path id="Vector" d="M2.99983 4.37625C1.82605 4.37625 0.874512 3.42471 0.874512 2.25093C0.874512 1.07715 1.82605 0.12561 2.99983 0.12561C4.17361 0.12561 5.12515 1.07715 5.12515 2.25093C5.12515 3.42471 4.17361 4.37625 2.99983 4.37625Z" fill="#19191A"/>
<path id="Vector_2" d="M2.99979 11.6248C1.82677 11.6248 0.875854 10.6739 0.875854 9.50089C0.875855 8.32787 1.82677 7.37695 2.99979 7.37695C4.17281 7.37695 5.12373 8.32787 5.12373 9.50089C5.12373 10.6739 4.17281 11.6248 2.99979 11.6248Z" fill="#19191A"/>
<path id="Vector_3" d="M2.99977 18.8744C1.82703 18.8744 0.876343 17.9237 0.876343 16.7509C0.876343 15.5782 1.82703 14.6275 2.99977 14.6275C4.17251 14.6275 5.1232 15.5782 5.1232 16.7509C5.1232 17.9237 4.17251 18.8744 2.99977 18.8744Z" fill="#19191A"/>
</g>
</svg>
