<svg width="36" height="37" viewBox="0 0 36 37" fill="none" xmlns="http://www.w3.org/2000/svg">
<circle cx="18" cy="18.5" r="18" fill="#F9FAFB"/>
<path d="M17.9998 13.3763C16.8261 13.3763 15.8745 12.4247 15.8745 11.2509C15.8745 10.0771 16.8261 9.12561 17.9998 9.12561C19.1736 9.12561 20.1252 10.0771 20.1252 11.2509C20.1252 12.4247 19.1736 13.3763 17.9998 13.3763Z" fill="#19191A"/>
<path d="M17.9998 20.6248C16.8268 20.6248 15.8759 19.6739 15.8759 18.5009C15.8759 17.3279 16.8268 16.377 17.9998 16.377C19.1728 16.377 20.1237 17.3279 20.1237 18.5009C20.1237 19.6739 19.1728 20.6248 17.9998 20.6248Z" fill="#19191A"/>
<path d="M17.9998 27.8744C16.827 27.8744 15.8763 26.9237 15.8763 25.7509C15.8763 24.5782 16.827 23.6275 17.9998 23.6275C19.1725 23.6275 20.1232 24.5782 20.1232 25.7509C20.1232 26.9237 19.1725 27.8744 17.9998 27.8744Z" fill="#19191A"/>
</svg>
