<svg width="24" height="25" viewBox="0 0 24 25" fill="none" xmlns="http://www.w3.org/2000/svg">
<path d="M11.9998 7.37625C10.8261 7.37625 9.87451 6.42471 9.87451 5.25093C9.87451 4.07715 10.8261 3.12561 11.9998 3.12561C13.1736 3.12561 14.1252 4.07715 14.1252 5.25093C14.1252 6.42471 13.1736 7.37625 11.9998 7.37625Z" fill="#19191A"/>
<path d="M11.9998 14.6248C10.8268 14.6248 9.87585 13.6739 9.87585 12.5009C9.87585 11.3279 10.8268 10.377 11.9998 10.377C13.1728 10.377 14.1237 11.3279 14.1237 12.5009C14.1237 13.6739 13.1728 14.6248 11.9998 14.6248Z" fill="#19191A"/>
<path d="M11.9998 21.8744C10.827 21.8744 9.87634 20.9237 9.87634 19.7509C9.87634 18.5782 10.827 17.6275 11.9998 17.6275C13.1725 17.6275 14.1232 18.5782 14.1232 19.7509C14.1232 20.9237 13.1725 21.8744 11.9998 21.8744Z" fill="#19191A"/>
</svg>
