<svg width="20" height="18" viewBox="0 0 20 18" fill="none" xmlns="http://www.w3.org/2000/svg">
<path fill-rule="evenodd" clip-rule="evenodd" d="M2.60129 0.828942C1.56588 0.368807 0.501522 1.41322 0.941977 2.45715L3.66159 8.90295C3.68781 8.96509 3.68781 9.03518 3.66159 9.09732L0.941977 15.5431C0.501522 16.5871 1.56588 17.6315 2.60129 17.1713L18.418 10.1424C19.4079 9.70255 19.4079 8.29773 18.418 7.85785L2.60129 0.828942ZM7.6416 8.25C7.22739 8.25 6.8916 8.58579 6.8916 9C6.8916 9.41421 7.22739 9.75 7.6416 9.75L10.6416 9.75C11.0558 9.75 11.3916 9.41421 11.3916 9C11.3916 8.58579 11.0558 8.25 10.6416 8.25L7.6416 8.25Z" fill="#F9FAFB"/>
</svg>
