<svg width="627" height="60" viewBox="0 0 627 60" fill="none" xmlns="http://www.w3.org/2000/svg">
<rect width="496" height="60" fill="white" fill-opacity="0.15"/>
<path d="M36.3457 36.9062L39.2852 27.4336H41.2188L36.9805 39.6309C36.8828 39.8913 36.7526 40.1712 36.5898 40.4707C36.4336 40.7767 36.2318 41.0664 35.9844 41.3398C35.737 41.6133 35.4375 41.8346 35.0859 42.0039C34.7409 42.1797 34.3275 42.2676 33.8457 42.2676C33.7025 42.2676 33.5202 42.248 33.2988 42.209C33.0775 42.1699 32.9212 42.1374 32.8301 42.1113L32.8203 40.6465C32.8724 40.653 32.9538 40.6595 33.0645 40.666C33.1816 40.679 33.263 40.6855 33.3086 40.6855C33.7188 40.6855 34.0671 40.6302 34.3535 40.5195C34.64 40.4154 34.8809 40.2363 35.0762 39.9824C35.278 39.735 35.4505 39.3932 35.5938 38.957L36.3457 36.9062ZM34.1875 27.4336L36.9316 35.6367L37.4004 37.541L36.1016 38.2051L32.2148 27.4336H34.1875ZM42.2148 32.834V32.6094C42.2148 31.8477 42.3255 31.1413 42.5469 30.4902C42.7682 29.8327 43.0872 29.263 43.5039 28.7812C43.9206 28.293 44.4251 27.9154 45.0176 27.6484C45.61 27.375 46.2741 27.2383 47.0098 27.2383C47.752 27.2383 48.4193 27.375 49.0117 27.6484C49.6107 27.9154 50.1185 28.293 50.5352 28.7812C50.9583 29.263 51.2806 29.8327 51.502 30.4902C51.7233 31.1413 51.834 31.8477 51.834 32.6094V32.834C51.834 33.5957 51.7233 34.3021 51.502 34.9531C51.2806 35.6042 50.9583 36.1738 50.5352 36.6621C50.1185 37.1439 49.6139 37.5215 49.0215 37.7949C48.4355 38.0618 47.7715 38.1953 47.0293 38.1953C46.2871 38.1953 45.6198 38.0618 45.0273 37.7949C44.4349 37.5215 43.9271 37.1439 43.5039 36.6621C43.0872 36.1738 42.7682 35.6042 42.5469 34.9531C42.3255 34.3021 42.2148 33.5957 42.2148 32.834ZM44.0215 32.6094V32.834C44.0215 33.3613 44.0833 33.8594 44.207 34.3281C44.3307 34.7904 44.5163 35.2005 44.7637 35.5586C45.0176 35.9167 45.3333 36.1999 45.7109 36.4082C46.0885 36.61 46.528 36.7109 47.0293 36.7109C47.5241 36.7109 47.957 36.61 48.3281 36.4082C48.7057 36.1999 49.0182 35.9167 49.2656 35.5586C49.513 35.2005 49.6986 34.7904 49.8223 34.3281C49.9525 33.8594 50.0176 33.3613 50.0176 32.834V32.6094C50.0176 32.0885 49.9525 31.597 49.8223 31.1348C49.6986 30.666 49.5098 30.2526 49.2559 29.8945C49.0085 29.5299 48.696 29.2435 48.3184 29.0352C47.9473 28.8268 47.5111 28.7227 47.0098 28.7227C46.515 28.7227 46.0788 28.8268 45.7012 29.0352C45.3301 29.2435 45.0176 29.5299 44.7637 29.8945C44.5163 30.2526 44.3307 30.666 44.207 31.1348C44.0833 31.597 44.0215 32.0885 44.0215 32.6094ZM60.5645 35.5586V27.4336H62.3809V38H60.6523L60.5645 35.5586ZM60.9062 33.332L61.6582 33.3125C61.6582 34.0156 61.5833 34.6667 61.4336 35.2656C61.2904 35.8581 61.056 36.3724 60.7305 36.8086C60.4049 37.2448 59.9785 37.5866 59.4512 37.834C58.9238 38.0749 58.2826 38.1953 57.5273 38.1953C57.013 38.1953 56.541 38.1204 56.1113 37.9707C55.6882 37.821 55.3236 37.5898 55.0176 37.2773C54.7116 36.9648 54.474 36.5579 54.3047 36.0566C54.1419 35.5553 54.0605 34.9531 54.0605 34.25V27.4336H55.8672V34.2695C55.8672 34.7448 55.9193 35.1387 56.0234 35.4512C56.1341 35.7572 56.2806 36.0013 56.4629 36.1836C56.6517 36.3594 56.86 36.4831 57.0879 36.5547C57.3223 36.6263 57.5632 36.6621 57.8105 36.6621C58.5788 36.6621 59.1875 36.5156 59.6367 36.2227C60.0859 35.9232 60.4082 35.5228 60.6035 35.0215C60.8053 34.5137 60.9062 33.9505 60.9062 33.332ZM66.9414 29.0938V38H65.1348V27.4336H66.8926L66.9414 29.0938ZM70.2422 27.375L70.2324 29.0547C70.0827 29.0221 69.9395 29.0026 69.8027 28.9961C69.6725 28.9831 69.5228 28.9766 69.3535 28.9766C68.9368 28.9766 68.569 29.0417 68.25 29.1719C67.931 29.3021 67.6608 29.4844 67.4395 29.7188C67.2181 29.9531 67.0423 30.2331 66.9121 30.5586C66.7884 30.8776 66.707 31.2292 66.668 31.6133L66.1602 31.9062C66.1602 31.2682 66.222 30.6693 66.3457 30.1094C66.4759 29.5495 66.6745 29.0547 66.9414 28.625C67.2083 28.1888 67.5469 27.8503 67.957 27.6094C68.3737 27.362 68.8685 27.2383 69.4414 27.2383C69.5716 27.2383 69.7214 27.2546 69.8906 27.2871C70.0599 27.3132 70.1771 27.3424 70.2422 27.375ZM87.4883 33.0879C87.4622 33.6868 87.3711 34.2891 87.2148 34.8945C87.0586 35.4935 86.8242 36.0436 86.5117 36.5449C86.1992 37.0462 85.7923 37.4499 85.291 37.7559C84.7962 38.0553 84.1973 38.2051 83.4941 38.2051C83.0449 38.2051 82.651 38.127 82.3125 37.9707C81.9805 37.8079 81.707 37.5768 81.4922 37.2773C81.2839 36.9779 81.1374 36.6165 81.0527 36.1934C80.9746 35.7702 80.9616 35.2982 81.0137 34.7773L81.5117 29.3672H82.9473L82.4492 34.7773C82.4102 35.2526 82.4199 35.64 82.4785 35.9395C82.5436 36.2389 82.6413 36.4701 82.7715 36.6328C82.9017 36.7891 83.0482 36.8965 83.2109 36.9551C83.3802 37.0137 83.543 37.043 83.6992 37.043C84.0898 37.043 84.4382 36.9421 84.7441 36.7402C85.0501 36.5319 85.3073 36.2487 85.5156 35.8906C85.7305 35.526 85.8965 35.1061 86.0137 34.6309C86.1309 34.1491 86.2025 33.6348 86.2285 33.0879C86.2741 32.1178 86.2285 31.2259 86.0918 30.4121C85.9616 29.5983 85.737 28.8757 85.418 28.2441C85.1055 27.6126 84.6953 27.0788 84.1875 26.6426C83.6797 26.2064 83.0742 25.8743 82.3711 25.6465C81.668 25.4186 80.8639 25.3047 79.959 25.3047C79.1387 25.3047 78.3802 25.4316 77.6836 25.6855C76.9935 25.9329 76.3717 26.291 75.8184 26.7598C75.2715 27.2285 74.7995 27.7917 74.4023 28.4492C74.0117 29.1068 73.7025 29.849 73.4746 30.6758C73.2533 31.4961 73.123 32.3815 73.084 33.332C73.0384 34.3086 73.0905 35.207 73.2402 36.0273C73.39 36.8411 73.6309 37.5671 73.9629 38.2051C74.3014 38.8496 74.7279 39.3932 75.2422 39.8359C75.7565 40.2852 76.3522 40.6237 77.0293 40.8516C77.7064 41.0859 78.4616 41.2031 79.2949 41.2031C79.8678 41.2031 80.4473 41.1348 81.0332 40.998C81.6257 40.8613 82.1204 40.6758 82.5176 40.4414L82.8887 41.5547C82.4329 41.8477 81.8633 42.0658 81.1797 42.209C80.5026 42.3522 79.8613 42.4238 79.2559 42.4238C78.2663 42.4238 77.3613 42.2871 76.541 42.0137C75.7272 41.7467 75.0046 41.3529 74.373 40.832C73.748 40.3177 73.2272 39.6895 72.8105 38.9473C72.3939 38.2116 72.0879 37.3717 71.8926 36.4277C71.6973 35.4837 71.6224 34.4518 71.668 33.332C71.7135 32.2643 71.873 31.2585 72.1465 30.3145C72.4264 29.3704 72.8073 28.5143 73.2891 27.7461C73.7708 26.9779 74.3438 26.3171 75.0078 25.7637C75.6784 25.2038 76.4303 24.7741 77.2637 24.4746C78.1035 24.1751 79.015 24.0254 79.998 24.0254C81.0007 24.0254 81.9089 24.1621 82.7227 24.4355C83.5365 24.709 84.2493 25.1029 84.8613 25.6172C85.4798 26.1315 85.9909 26.7598 86.3945 27.502C86.7982 28.2441 87.0911 29.084 87.2734 30.0215C87.4622 30.959 87.5339 31.9811 87.4883 33.0879ZM77.459 33.918C77.4134 34.3737 77.4134 34.7806 77.459 35.1387C77.5046 35.4967 77.5924 35.7995 77.7227 36.0469C77.8529 36.2943 78.0221 36.4831 78.2305 36.6133C78.4453 36.737 78.696 36.7988 78.9824 36.7988C79.1712 36.7988 79.3698 36.7533 79.5781 36.6621C79.7865 36.5645 79.9915 36.4147 80.1934 36.2129C80.3952 36.0111 80.584 35.7474 80.7598 35.4219C80.9355 35.0964 81.082 34.7057 81.1992 34.25L81.8438 34.9531C81.694 35.487 81.4987 35.9557 81.2578 36.3594C81.0234 36.763 80.7598 37.1016 80.4668 37.375C80.1738 37.6484 79.8613 37.8568 79.5293 38C79.2038 38.1367 78.8717 38.2051 78.5332 38.2051C78.0579 38.2051 77.6413 38.1042 77.2832 37.9023C76.9251 37.694 76.6354 37.401 76.4141 37.0234C76.1927 36.6458 76.0365 36.1966 75.9453 35.6758C75.8607 35.1484 75.8477 34.5625 75.9062 33.918C75.9648 33.2344 76.0853 32.6029 76.2676 32.0234C76.4499 31.444 76.6745 30.9264 76.9414 30.4707C77.2148 30.015 77.5208 29.6276 77.8594 29.3086C78.2044 28.9896 78.569 28.7487 78.9531 28.5859C79.3372 28.4167 79.7311 28.332 80.1348 28.332C80.8379 28.332 81.3913 28.4362 81.7949 28.6445C82.1986 28.8464 82.5827 29.0872 82.9473 29.3672L82.1172 30.334C81.9284 30.1517 81.681 29.9824 81.375 29.8262C81.069 29.6699 80.7077 29.5918 80.291 29.5918C79.9329 29.5918 79.5977 29.6829 79.2852 29.8652C78.9727 30.0475 78.6895 30.321 78.4355 30.6855C78.1882 31.0501 77.9798 31.5026 77.8105 32.043C77.6413 32.5768 77.5241 33.2018 77.459 33.918ZM94.2656 38.1953C93.5299 38.1953 92.8626 38.0716 92.2637 37.8242C91.6712 37.5703 91.1602 37.2155 90.7305 36.7598C90.3073 36.304 89.9818 35.7637 89.7539 35.1387C89.526 34.5137 89.4121 33.8301 89.4121 33.0879V32.6777C89.4121 31.8184 89.5391 31.0534 89.793 30.3828C90.0469 29.7057 90.3919 29.1328 90.8281 28.6641C91.2643 28.1953 91.7591 27.8405 92.3125 27.5996C92.8659 27.3587 93.4388 27.2383 94.0312 27.2383C94.7865 27.2383 95.4375 27.3685 95.9844 27.6289C96.5378 27.8893 96.9902 28.2539 97.3418 28.7227C97.6934 29.1849 97.9538 29.7318 98.123 30.3633C98.2923 30.9883 98.377 31.6719 98.377 32.4141V33.2246H90.4863V31.75H96.5703V31.6133C96.5443 31.1445 96.4466 30.6888 96.2773 30.2461C96.1146 29.8034 95.8542 29.4388 95.4961 29.1523C95.138 28.8659 94.6497 28.7227 94.0312 28.7227C93.6211 28.7227 93.2435 28.8105 92.8984 28.9863C92.5534 29.1556 92.2572 29.4095 92.0098 29.748C91.7624 30.0866 91.5703 30.5 91.4336 30.9883C91.2969 31.4766 91.2285 32.0397 91.2285 32.6777V33.0879C91.2285 33.5892 91.2969 34.0612 91.4336 34.5039C91.5768 34.9401 91.7819 35.3242 92.0488 35.6562C92.3223 35.9883 92.651 36.2487 93.0352 36.4375C93.4258 36.6263 93.8685 36.7207 94.3633 36.7207C95.0013 36.7207 95.5417 36.5905 95.9844 36.3301C96.4271 36.0697 96.8145 35.7214 97.1465 35.2852L98.2402 36.1543C98.0124 36.4993 97.7227 36.8281 97.3711 37.1406C97.0195 37.4531 96.5866 37.707 96.0723 37.9023C95.5645 38.0977 94.9622 38.1953 94.2656 38.1953ZM102.283 29.5332V38H100.467V27.4336H102.186L102.283 29.5332ZM101.912 32.3164L101.072 32.2871C101.079 31.5645 101.173 30.8971 101.355 30.2852C101.538 29.6667 101.808 29.1296 102.166 28.6738C102.524 28.2181 102.97 27.8665 103.504 27.6191C104.038 27.3652 104.656 27.2383 105.359 27.2383C105.854 27.2383 106.31 27.3099 106.727 27.4531C107.143 27.5898 107.505 27.8079 107.811 28.1074C108.117 28.4069 108.354 28.791 108.523 29.2598C108.693 29.7285 108.777 30.2949 108.777 30.959V38H106.971V31.0469C106.971 30.4935 106.876 30.0508 106.688 29.7188C106.505 29.3867 106.245 29.1458 105.906 28.9961C105.568 28.8398 105.171 28.7617 104.715 28.7617C104.181 28.7617 103.735 28.8561 103.377 29.0449C103.019 29.2337 102.732 29.4941 102.518 29.8262C102.303 30.1582 102.146 30.5391 102.049 30.9688C101.958 31.3919 101.912 31.8411 101.912 32.3164ZM108.758 31.3203L107.547 31.6914C107.553 31.112 107.648 30.5553 107.83 30.0215C108.019 29.4876 108.289 29.0124 108.641 28.5957C108.999 28.179 109.438 27.8503 109.959 27.6094C110.48 27.362 111.076 27.2383 111.746 27.2383C112.312 27.2383 112.814 27.3132 113.25 27.4629C113.693 27.6126 114.064 27.8438 114.363 28.1562C114.669 28.4622 114.9 28.8561 115.057 29.3379C115.213 29.8197 115.291 30.3926 115.291 31.0566V38H113.475V31.0371C113.475 30.4447 113.38 29.9857 113.191 29.6602C113.009 29.3281 112.749 29.097 112.41 28.9668C112.078 28.8301 111.681 28.7617 111.219 28.7617C110.822 28.7617 110.47 28.8301 110.164 28.9668C109.858 29.1035 109.601 29.2923 109.393 29.5332C109.184 29.7676 109.025 30.0378 108.914 30.3438C108.81 30.6497 108.758 30.9753 108.758 31.3203ZM124.256 36.1934V30.7539C124.256 30.3372 124.171 29.9759 124.002 29.6699C123.839 29.3574 123.592 29.1165 123.26 28.9473C122.928 28.778 122.518 28.6934 122.029 28.6934C121.574 28.6934 121.173 28.7715 120.828 28.9277C120.49 29.084 120.223 29.2891 120.027 29.543C119.839 29.7969 119.744 30.0703 119.744 30.3633H117.938C117.938 29.9857 118.035 29.6113 118.23 29.2402C118.426 28.8691 118.706 28.5339 119.07 28.2344C119.441 27.9284 119.884 27.6875 120.398 27.5117C120.919 27.3294 121.499 27.2383 122.137 27.2383C122.905 27.2383 123.582 27.3685 124.168 27.6289C124.76 27.8893 125.223 28.2832 125.555 28.8105C125.893 29.3314 126.062 29.9857 126.062 30.7734V35.6953C126.062 36.0469 126.092 36.4212 126.15 36.8184C126.215 37.2155 126.31 37.5573 126.434 37.8438V38H124.549C124.458 37.7917 124.386 37.515 124.334 37.1699C124.282 36.8184 124.256 36.4928 124.256 36.1934ZM124.568 31.5938L124.588 32.8633H122.762C122.247 32.8633 121.788 32.9056 121.385 32.9902C120.981 33.0684 120.643 33.1888 120.369 33.3516C120.096 33.5143 119.887 33.7194 119.744 33.9668C119.601 34.2077 119.529 34.4909 119.529 34.8164C119.529 35.1484 119.604 35.4512 119.754 35.7246C119.904 35.998 120.128 36.2161 120.428 36.3789C120.734 36.5352 121.108 36.6133 121.551 36.6133C122.104 36.6133 122.592 36.4961 123.016 36.2617C123.439 36.0273 123.774 35.7409 124.021 35.4023C124.275 35.0638 124.412 34.735 124.432 34.416L125.203 35.2852C125.158 35.5586 125.034 35.8613 124.832 36.1934C124.63 36.5254 124.36 36.8444 124.021 37.1504C123.689 37.4499 123.292 37.7005 122.83 37.9023C122.374 38.0977 121.86 38.1953 121.287 38.1953C120.571 38.1953 119.943 38.0553 119.402 37.7754C118.868 37.4954 118.452 37.1211 118.152 36.6523C117.859 36.1771 117.713 35.6465 117.713 35.0605C117.713 34.4941 117.824 33.9961 118.045 33.5664C118.266 33.1302 118.585 32.7689 119.002 32.4824C119.419 32.1895 119.92 31.9681 120.506 31.8184C121.092 31.6686 121.746 31.5938 122.469 31.5938H124.568ZM130.867 27.4336V38H129.051V27.4336H130.867ZM128.914 24.6309C128.914 24.3379 129.002 24.0905 129.178 23.8887C129.36 23.6868 129.627 23.5859 129.979 23.5859C130.324 23.5859 130.587 23.6868 130.77 23.8887C130.958 24.0905 131.053 24.3379 131.053 24.6309C131.053 24.9108 130.958 25.1517 130.77 25.3535C130.587 25.5488 130.324 25.6465 129.979 25.6465C129.627 25.6465 129.36 25.5488 129.178 25.3535C129.002 25.1517 128.914 24.9108 128.914 24.6309ZM135.73 23V38H133.914V23H135.73ZM138.66 37.043C138.66 36.737 138.755 36.4798 138.943 36.2715C139.139 36.0566 139.419 35.9492 139.783 35.9492C140.148 35.9492 140.424 36.0566 140.613 36.2715C140.809 36.4798 140.906 36.737 140.906 37.043C140.906 37.3424 140.809 37.5964 140.613 37.8047C140.424 38.013 140.148 38.1172 139.783 38.1172C139.419 38.1172 139.139 38.013 138.943 37.8047C138.755 37.5964 138.66 37.3424 138.66 37.043ZM148.133 36.7109C148.562 36.7109 148.96 36.623 149.324 36.4473C149.689 36.2715 149.988 36.0306 150.223 35.7246C150.457 35.4121 150.59 35.0573 150.623 34.6602H152.342C152.309 35.2852 152.098 35.8678 151.707 36.4082C151.323 36.9421 150.818 37.375 150.193 37.707C149.568 38.0326 148.882 38.1953 148.133 38.1953C147.339 38.1953 146.645 38.0553 146.053 37.7754C145.467 37.4954 144.979 37.1113 144.588 36.623C144.204 36.1348 143.914 35.5749 143.719 34.9434C143.53 34.3053 143.436 33.6315 143.436 32.9219V32.5117C143.436 31.8021 143.53 31.1315 143.719 30.5C143.914 29.862 144.204 29.2988 144.588 28.8105C144.979 28.3223 145.467 27.9382 146.053 27.6582C146.645 27.3783 147.339 27.2383 148.133 27.2383C148.96 27.2383 149.682 27.4076 150.301 27.7461C150.919 28.0781 151.404 28.5339 151.756 29.1133C152.114 29.6862 152.309 30.3372 152.342 31.0664H150.623C150.59 30.6302 150.467 30.2363 150.252 29.8848C150.044 29.5332 149.757 29.2533 149.393 29.0449C149.035 28.8301 148.615 28.7227 148.133 28.7227C147.579 28.7227 147.114 28.8333 146.736 29.0547C146.365 29.2695 146.069 29.5625 145.848 29.9336C145.633 30.2982 145.477 30.7051 145.379 31.1543C145.288 31.597 145.242 32.0495 145.242 32.5117V32.9219C145.242 33.3841 145.288 33.8398 145.379 34.2891C145.47 34.7383 145.623 35.1452 145.838 35.5098C146.059 35.8743 146.355 36.1673 146.727 36.3887C147.104 36.6035 147.573 36.7109 148.133 36.7109ZM153.895 32.834V32.6094C153.895 31.8477 154.005 31.1413 154.227 30.4902C154.448 29.8327 154.767 29.263 155.184 28.7812C155.6 28.293 156.105 27.9154 156.697 27.6484C157.29 27.375 157.954 27.2383 158.689 27.2383C159.432 27.2383 160.099 27.375 160.691 27.6484C161.29 27.9154 161.798 28.293 162.215 28.7812C162.638 29.263 162.96 29.8327 163.182 30.4902C163.403 31.1413 163.514 31.8477 163.514 32.6094V32.834C163.514 33.5957 163.403 34.3021 163.182 34.9531C162.96 35.6042 162.638 36.1738 162.215 36.6621C161.798 37.1439 161.294 37.5215 160.701 37.7949C160.115 38.0618 159.451 38.1953 158.709 38.1953C157.967 38.1953 157.299 38.0618 156.707 37.7949C156.115 37.5215 155.607 37.1439 155.184 36.6621C154.767 36.1738 154.448 35.6042 154.227 34.9531C154.005 34.3021 153.895 33.5957 153.895 32.834ZM155.701 32.6094V32.834C155.701 33.3613 155.763 33.8594 155.887 34.3281C156.01 34.7904 156.196 35.2005 156.443 35.5586C156.697 35.9167 157.013 36.1999 157.391 36.4082C157.768 36.61 158.208 36.7109 158.709 36.7109C159.204 36.7109 159.637 36.61 160.008 36.4082C160.385 36.1999 160.698 35.9167 160.945 35.5586C161.193 35.2005 161.378 34.7904 161.502 34.3281C161.632 33.8594 161.697 33.3613 161.697 32.834V32.6094C161.697 32.0885 161.632 31.597 161.502 31.1348C161.378 30.666 161.189 30.2526 160.936 29.8945C160.688 29.5299 160.376 29.2435 159.998 29.0352C159.627 28.8268 159.191 28.7227 158.689 28.7227C158.195 28.7227 157.758 28.8268 157.381 29.0352C157.01 29.2435 156.697 29.5299 156.443 29.8945C156.196 30.2526 156.01 30.666 155.887 31.1348C155.763 31.597 155.701 32.0885 155.701 32.6094ZM167.576 29.5332V38H165.76V27.4336H167.479L167.576 29.5332ZM167.205 32.3164L166.365 32.2871C166.372 31.5645 166.466 30.8971 166.648 30.2852C166.831 29.6667 167.101 29.1296 167.459 28.6738C167.817 28.2181 168.263 27.8665 168.797 27.6191C169.331 27.3652 169.949 27.2383 170.652 27.2383C171.147 27.2383 171.603 27.3099 172.02 27.4531C172.436 27.5898 172.798 27.8079 173.104 28.1074C173.41 28.4069 173.647 28.791 173.816 29.2598C173.986 29.7285 174.07 30.2949 174.07 30.959V38H172.264V31.0469C172.264 30.4935 172.169 30.0508 171.98 29.7188C171.798 29.3867 171.538 29.1458 171.199 28.9961C170.861 28.8398 170.464 28.7617 170.008 28.7617C169.474 28.7617 169.028 28.8561 168.67 29.0449C168.312 29.2337 168.025 29.4941 167.811 29.8262C167.596 30.1582 167.439 30.5391 167.342 30.9688C167.251 31.3919 167.205 31.8411 167.205 32.3164ZM174.051 31.3203L172.84 31.6914C172.846 31.112 172.941 30.5553 173.123 30.0215C173.312 29.4876 173.582 29.0124 173.934 28.5957C174.292 28.179 174.731 27.8503 175.252 27.6094C175.773 27.362 176.368 27.2383 177.039 27.2383C177.605 27.2383 178.107 27.3132 178.543 27.4629C178.986 27.6126 179.357 27.8438 179.656 28.1562C179.962 28.4622 180.193 28.8561 180.35 29.3379C180.506 29.8197 180.584 30.3926 180.584 31.0566V38H178.768V31.0371C178.768 30.4447 178.673 29.9857 178.484 29.6602C178.302 29.3281 178.042 29.097 177.703 28.9668C177.371 28.8301 176.974 28.7617 176.512 28.7617C176.115 28.7617 175.763 28.8301 175.457 28.9668C175.151 29.1035 174.894 29.2923 174.686 29.5332C174.477 29.7676 174.318 30.0378 174.207 30.3438C174.103 30.6497 174.051 30.9753 174.051 31.3203Z" fill="white"/>
<rect width="131" height="60" transform="translate(496)" fill="white"/>
<path d="M537.229 33.4062C537.229 33.0742 537.176 32.7812 537.072 32.5273C536.975 32.2669 536.799 32.0326 536.545 31.8242C536.298 31.6159 535.952 31.4173 535.51 31.2285C535.074 31.0397 534.52 30.8477 533.85 30.6523C533.146 30.444 532.512 30.2129 531.945 29.959C531.379 29.6986 530.894 29.4023 530.49 29.0703C530.087 28.7383 529.777 28.3574 529.562 27.9277C529.348 27.498 529.24 27.0065 529.24 26.4531C529.24 25.8997 529.354 25.3887 529.582 24.9199C529.81 24.4512 530.135 24.0443 530.559 23.6992C530.988 23.3477 531.499 23.0742 532.092 22.8789C532.684 22.6836 533.345 22.5859 534.074 22.5859C535.142 22.5859 536.047 22.791 536.789 23.2012C537.538 23.6048 538.107 24.1354 538.498 24.793C538.889 25.444 539.084 26.1406 539.084 26.8828H537.209C537.209 26.349 537.095 25.877 536.867 25.4668C536.639 25.0501 536.294 24.7246 535.832 24.4902C535.37 24.2493 534.784 24.1289 534.074 24.1289C533.404 24.1289 532.85 24.2298 532.414 24.4316C531.978 24.6335 531.652 24.9069 531.438 25.252C531.229 25.597 531.125 25.9909 531.125 26.4336C531.125 26.7331 531.187 27.0065 531.311 27.2539C531.441 27.4948 531.639 27.7194 531.906 27.9277C532.18 28.1361 532.525 28.3281 532.941 28.5039C533.365 28.6797 533.869 28.849 534.455 29.0117C535.262 29.2396 535.959 29.4935 536.545 29.7734C537.131 30.0534 537.613 30.3691 537.99 30.7207C538.374 31.0658 538.658 31.4596 538.84 31.9023C539.029 32.3385 539.123 32.8333 539.123 33.3867C539.123 33.9661 539.006 34.4902 538.771 34.959C538.537 35.4277 538.202 35.8281 537.766 36.1602C537.329 36.4922 536.805 36.7493 536.193 36.9316C535.588 37.1074 534.911 37.1953 534.162 37.1953C533.505 37.1953 532.857 37.1042 532.219 36.9219C531.587 36.7396 531.011 36.4661 530.49 36.1016C529.976 35.737 529.562 35.2878 529.25 34.7539C528.944 34.2135 528.791 33.5885 528.791 32.8789H530.666C530.666 33.3672 530.76 33.7871 530.949 34.1387C531.138 34.4837 531.395 34.7702 531.721 34.998C532.053 35.2259 532.427 35.3952 532.844 35.5059C533.267 35.61 533.706 35.6621 534.162 35.6621C534.82 35.6621 535.376 35.571 535.832 35.3887C536.288 35.2064 536.633 34.946 536.867 34.6074C537.108 34.2689 537.229 33.8685 537.229 33.4062ZM543.215 26.4336V37H541.398V26.4336H543.215ZM541.262 23.6309C541.262 23.3379 541.35 23.0905 541.525 22.8887C541.708 22.6868 541.975 22.5859 542.326 22.5859C542.671 22.5859 542.935 22.6868 543.117 22.8887C543.306 23.0905 543.4 23.3379 543.4 23.6309C543.4 23.9108 543.306 24.1517 543.117 24.3535C542.935 24.5488 542.671 24.6465 542.326 24.6465C541.975 24.6465 541.708 24.5488 541.525 24.3535C541.35 24.1517 541.262 23.9108 541.262 23.6309ZM552.961 26.4336H554.602V36.7754C554.602 37.7064 554.413 38.5007 554.035 39.1582C553.658 39.8158 553.13 40.3138 552.453 40.6523C551.783 40.9974 551.008 41.1699 550.129 41.1699C549.764 41.1699 549.335 41.1113 548.84 40.9941C548.352 40.8835 547.87 40.6914 547.395 40.418C546.926 40.151 546.532 39.7897 546.213 39.334L547.16 38.2598C547.603 38.7936 548.065 39.1647 548.547 39.373C549.035 39.5814 549.517 39.6855 549.992 39.6855C550.565 39.6855 551.06 39.5781 551.477 39.3633C551.893 39.1484 552.215 38.8294 552.443 38.4062C552.678 37.9896 552.795 37.4753 552.795 36.8633V28.7578L552.961 26.4336ZM545.686 31.834V31.6289C545.686 30.8216 545.78 30.0892 545.969 29.4316C546.164 28.7676 546.441 28.1979 546.799 27.7227C547.163 27.2474 547.603 26.8828 548.117 26.6289C548.632 26.3685 549.211 26.2383 549.855 26.2383C550.52 26.2383 551.099 26.3555 551.594 26.5898C552.095 26.8177 552.518 27.153 552.863 27.5957C553.215 28.0319 553.492 28.5592 553.693 29.1777C553.895 29.7962 554.035 30.4961 554.113 31.2773V32.1758C554.042 32.9505 553.902 33.6471 553.693 34.2656C553.492 34.8841 553.215 35.4115 552.863 35.8477C552.518 36.2839 552.095 36.6191 551.594 36.8535C551.092 37.0814 550.507 37.1953 549.836 37.1953C549.204 37.1953 548.632 37.0618 548.117 36.7949C547.609 36.528 547.173 36.1536 546.809 35.6719C546.444 35.1901 546.164 34.6237 545.969 33.9727C545.78 33.3151 545.686 32.6022 545.686 31.834ZM547.492 31.6289V31.834C547.492 32.3613 547.544 32.8561 547.648 33.3184C547.759 33.7806 547.925 34.1875 548.146 34.5391C548.374 34.8906 548.664 35.1673 549.016 35.3691C549.367 35.5645 549.787 35.6621 550.275 35.6621C550.874 35.6621 551.369 35.5352 551.76 35.2812C552.15 35.0273 552.46 34.6921 552.688 34.2754C552.922 33.8587 553.104 33.4062 553.234 32.918V30.5645C553.163 30.2064 553.052 29.8613 552.902 29.5293C552.759 29.1908 552.57 28.8913 552.336 28.6309C552.108 28.3639 551.825 28.1523 551.486 27.9961C551.148 27.8398 550.751 27.7617 550.295 27.7617C549.8 27.7617 549.374 27.8659 549.016 28.0742C548.664 28.276 548.374 28.556 548.146 28.9141C547.925 29.2656 547.759 29.6758 547.648 30.1445C547.544 30.6068 547.492 31.1016 547.492 31.6289ZM559.152 28.6895V37H557.346V26.4336H559.055L559.152 28.6895ZM558.723 31.3164L557.971 31.2871C557.977 30.5645 558.085 29.8971 558.293 29.2852C558.501 28.6667 558.794 28.1296 559.172 27.6738C559.549 27.2181 559.999 26.8665 560.52 26.6191C561.047 26.3652 561.63 26.2383 562.268 26.2383C562.788 26.2383 563.257 26.3099 563.674 26.4531C564.09 26.5898 564.445 26.8112 564.738 27.1172C565.038 27.4232 565.266 27.8203 565.422 28.3086C565.578 28.7904 565.656 29.3796 565.656 30.0762V37H563.84V30.0566C563.84 29.5033 563.758 29.0605 563.596 28.7285C563.433 28.39 563.195 28.1458 562.883 27.9961C562.57 27.8398 562.186 27.7617 561.73 27.7617C561.281 27.7617 560.871 27.8561 560.5 28.0449C560.135 28.2337 559.82 28.4941 559.553 28.8262C559.292 29.1582 559.087 29.5391 558.938 29.9688C558.794 30.3919 558.723 30.8411 558.723 31.3164ZM579.826 34.5586V26.4336H581.643V37H579.914L579.826 34.5586ZM580.168 32.332L580.92 32.3125C580.92 33.0156 580.845 33.6667 580.695 34.2656C580.552 34.8581 580.318 35.3724 579.992 35.8086C579.667 36.2448 579.24 36.5866 578.713 36.834C578.186 37.0749 577.544 37.1953 576.789 37.1953C576.275 37.1953 575.803 37.1204 575.373 36.9707C574.95 36.821 574.585 36.5898 574.279 36.2773C573.973 35.9648 573.736 35.5579 573.566 35.0566C573.404 34.5553 573.322 33.9531 573.322 33.25V26.4336H575.129V33.2695C575.129 33.7448 575.181 34.1387 575.285 34.4512C575.396 34.7572 575.542 35.0013 575.725 35.1836C575.913 35.3594 576.122 35.4831 576.35 35.5547C576.584 35.6263 576.825 35.6621 577.072 35.6621C577.84 35.6621 578.449 35.5156 578.898 35.2227C579.348 34.9232 579.67 34.5228 579.865 34.0215C580.067 33.5137 580.168 32.9505 580.168 32.332ZM586.203 28.4648V41.0625H584.387V26.4336H586.047L586.203 28.4648ZM593.322 31.6289V31.834C593.322 32.6022 593.231 33.3151 593.049 33.9727C592.867 34.6237 592.6 35.1901 592.248 35.6719C591.903 36.1536 591.477 36.528 590.969 36.7949C590.461 37.0618 589.878 37.1953 589.221 37.1953C588.55 37.1953 587.958 37.0846 587.443 36.8633C586.929 36.6419 586.493 36.3197 586.135 35.8965C585.777 35.4733 585.49 34.9655 585.275 34.373C585.067 33.7806 584.924 33.1133 584.846 32.3711V31.2773C584.924 30.4961 585.07 29.7962 585.285 29.1777C585.5 28.5592 585.783 28.0319 586.135 27.5957C586.493 27.153 586.926 26.8177 587.434 26.5898C587.941 26.3555 588.527 26.2383 589.191 26.2383C589.855 26.2383 590.445 26.3685 590.959 26.6289C591.473 26.8828 591.906 27.2474 592.258 27.7227C592.609 28.1979 592.873 28.7676 593.049 29.4316C593.231 30.0892 593.322 30.8216 593.322 31.6289ZM591.506 31.834V31.6289C591.506 31.1016 591.451 30.6068 591.34 30.1445C591.229 29.6758 591.057 29.2656 590.822 28.9141C590.594 28.556 590.301 28.276 589.943 28.0742C589.585 27.8659 589.159 27.7617 588.664 27.7617C588.208 27.7617 587.811 27.8398 587.473 27.9961C587.141 28.1523 586.857 28.3639 586.623 28.6309C586.389 28.8913 586.197 29.1908 586.047 29.5293C585.904 29.8613 585.796 30.2064 585.725 30.5645V33.0938C585.855 33.5495 586.037 33.9792 586.271 34.3828C586.506 34.7799 586.818 35.1022 587.209 35.3496C587.6 35.5905 588.091 35.7109 588.684 35.7109C589.172 35.7109 589.592 35.61 589.943 35.4082C590.301 35.1999 590.594 34.9167 590.822 34.5586C591.057 34.2005 591.229 33.7904 591.34 33.3281C591.451 32.8594 591.506 32.3613 591.506 31.834Z" fill="#2A254B"/>
</svg>
