<svg width="17" height="22" viewBox="0 0 17 22" fill="none" xmlns="http://www.w3.org/2000/svg">
<path d="M14.75 0.5C13.0878 0.502747 11.4651 1.00708 10.0942 1.94704C8.72323 2.887 7.66789 4.21881 7.06617 5.7683C6.58413 5.06903 5.93949 4.49727 5.18767 4.10216C4.43584 3.70705 3.59932 3.50041 2.75 3.5H0.5V5.75C0.501548 7.14191 1.05517 8.47637 2.0394 9.4606C3.02363 10.4448 4.35809 10.9985 5.75 11H6.5V17.787C4.7773 17.9554 3.16718 18.7191 1.94675 19.9465L3.00725 21.0071C3.63464 20.3798 4.39333 19.8995 5.22869 19.6006C6.06405 19.3018 6.95528 19.192 7.83819 19.279C8.7211 19.3661 9.57373 19.6478 10.3347 20.104C11.0956 20.5602 11.7459 21.1794 12.2387 21.9172L13.4849 21.0826C12.8701 20.1638 12.0593 19.3926 11.111 18.8244C10.1626 18.2562 9.10018 17.9052 8 17.7965V11H8.75C10.9373 10.9975 13.0343 10.1275 14.5809 8.58089C16.1275 7.03425 16.9975 4.93727 17 2.75V0.5H14.75ZM5.75 9.5C4.75579 9.49887 3.80262 9.10342 3.0996 8.4004C2.39658 7.69738 2.00113 6.74421 2 5.75V5H2.75C3.74423 5.00107 4.69744 5.3965 5.40047 6.09953C6.1035 6.80256 6.49893 7.75577 6.5 8.75V9.5H5.75ZM15.5 2.75C15.498 4.5396 14.7862 6.25534 13.5208 7.52078C12.2553 8.78622 10.5396 9.49801 8.75 9.5H8V8.75C8.00199 6.9604 8.71378 5.24466 9.97922 3.97922C11.2447 2.71378 12.9604 2.00199 14.75 2H15.5V2.75Z" fill="#2A254B"/>
</svg>
