<svg width="48" height="48" viewBox="0 0 48 48" fill="none" xmlns="http://www.w3.org/2000/svg">
<rect width="48" height="48" rx="8" fill="#005FF9"/>
<path fill-rule="evenodd" clip-rule="evenodd" d="M16.6013 15.8289C15.5659 15.3688 14.5015 16.4132 14.942 17.4571L17.6616 23.903C17.6878 23.9651 17.6878 24.0352 17.6616 24.0973L14.942 30.5431C14.5015 31.5871 15.5659 32.6315 16.6013 32.1713L32.418 25.1424C33.4079 24.7025 33.4079 23.2977 32.418 22.8579L16.6013 15.8289ZM21.6416 23.25C21.2274 23.25 20.8916 23.5858 20.8916 24C20.8916 24.4142 21.2274 24.75 21.6416 24.75L24.6416 24.75C25.0558 24.75 25.3916 24.4142 25.3916 24C25.3916 23.5858 25.0558 23.25 24.6416 23.25L21.6416 23.25Z" fill="#F9FAFB"/>
</svg>
